<?xml version="1.0" encoding="UTF-8" standalone="no"?>
<!DOCTYPE svg PUBLIC "-//W3C//DTD SVG 1.1//EN"
 "http://www.w3.org/Graphics/SVG/1.1/DTD/svg11.dtd">
<!-- Generated by graphviz version 2.40.1 (20161225.0304)
 -->
<!-- Title: finite_state_machine Pages: 1 -->
<svg width="600pt" height="152pt"
 viewBox="0.00 0.00 600.44 152.00" xmlns="http://www.w3.org/2000/svg" xmlns:xlink="http://www.w3.org/1999/xlink">
<g id="graph0" class="graph" transform="scale(1 1) rotate(0) translate(4 148)">
<title>finite_state_machine</title>
<polygon fill="#ffffff" stroke="transparent" points="-4,4 -4,-148 596.4385,-148 596.4385,4 -4,4"/>
<g id="clust1" class="cluster">
<title>cluster_aws</title>
<polygon fill="none" stroke="#000000" points="87,-8 87,-136 429.459,-136 429.459,-8 87,-8"/>
<text text-anchor="middle" x="258.2295" y="-120.8" font-family="Times,serif" font-size="14.00" fill="#000000">AWS environment</text>
</g>
<!-- GitHub -->
<g id="node1" class="node">
<title>GitHub</title>
<path fill="#d3d3d3" stroke="#000000" d="M46,-106C46,-106 12,-106 12,-106 6,-106 0,-100 0,-94 0,-94 0,-82 0,-82 0,-76 6,-70 12,-70 12,-70 46,-70 46,-70 52,-70 58,-76 58,-82 58,-82 58,-94 58,-94 58,-100 52,-106 46,-106"/>
<text text-anchor="middle" x="29" y="-83.8" font-family="Times,serif" font-size="14.00" fill="#000000">GitHub</text>
</g>
<!-- CodePipeline -->
<g id="node3" class="node">
<title>CodePipeline</title>
<path fill="#d3d3d3" stroke="#000000" d="M174.6529,-106C174.6529,-106 106.7817,-106 106.7817,-106 100.7817,-106 94.7817,-100 94.7817,-94 94.7817,-94 94.7817,-82 94.7817,-82 94.7817,-76 100.7817,-70 106.7817,-70 106.7817,-70 174.6529,-70 174.6529,-70 180.6529,-70 186.6529,-76 186.6529,-82 186.6529,-82 186.6529,-94 186.6529,-94 186.6529,-100 180.6529,-106 174.6529,-106"/>
<text text-anchor="middle" x="140.7173" y="-83.8" font-family="Times,serif" font-size="14.00" fill="#000000">CodePipeline</text>
</g>
<!-- GitHub&#45;&gt;CodePipeline -->
<g id="edge1" class="edge">
<title>GitHub&#45;&gt;CodePipeline</title>
<path fill="none" stroke="#000000" d="M58.0608,-88C66.322,-88 75.608,-88 84.8928,-88"/>
<polygon fill="#000000" stroke="#000000" points="84.9187,-91.5001 94.9187,-88 84.9187,-84.5001 84.9187,-91.5001"/>
</g>
<!-- OnDemmand -->
<g id="node2" class="node">
<title>OnDemmand</title>
<path fill="#d3d3d3" stroke="#000000" d="M580.6533,-79C580.6533,-79 512.7959,-79 512.7959,-79 506.7959,-79 500.7959,-73 500.7959,-67 500.7959,-67 500.7959,-55 500.7959,-55 500.7959,-49 506.7959,-43 512.7959,-43 512.7959,-43 580.6533,-43 580.6533,-43 586.6533,-43 592.6533,-49 592.6533,-55 592.6533,-55 592.6533,-67 592.6533,-67 592.6533,-73 586.6533,-79 580.6533,-79"/>
<text text-anchor="middle" x="546.7246" y="-56.8" font-family="Times,serif" font-size="14.00" fill="#000000">OnDemmand</text>
</g>
<!-- CodeBuild -->
<g id="node4" class="node">
<title>CodeBuild</title>
<path fill="#d3d3d3" stroke="#000000" d="M409.2942,-79C409.2942,-79 356.9549,-79 356.9549,-79 350.9549,-79 344.9549,-73 344.9549,-67 344.9549,-67 344.9549,-55 344.9549,-55 344.9549,-49 350.9549,-43 356.9549,-43 356.9549,-43 409.2942,-43 409.2942,-43 415.2942,-43 421.2942,-49 421.2942,-55 421.2942,-55 421.2942,-67 421.2942,-67 421.2942,-73 415.2942,-79 409.2942,-79"/>
<text text-anchor="middle" x="383.1245" y="-56.8" font-family="Times,serif" font-size="14.00" fill="#000000">CodeBuild</text>
</g>
<!-- CodePipeline&#45;&gt;CodeBuild -->
<g id="edge2" class="edge">
<title>CodePipeline&#45;&gt;CodeBuild</title>
<path fill="none" stroke="#000000" d="M186.5972,-82.8898C228.912,-78.1766 291.5202,-71.2031 334.6426,-66.4001"/>
<polygon fill="#000000" stroke="#000000" points="335.0665,-69.8746 344.6176,-65.289 334.2916,-62.9176 335.0665,-69.8746"/>
<text text-anchor="middle" x="265.6123" y="-80.8" font-family="Times,serif" font-size="14.00" fill="#000000">uses</text>
</g>
<!-- CodeBuild&#45;&gt;OnDemmand -->
<g id="edge4" class="edge">
<title>CodeBuild&#45;&gt;OnDemmand</title>
<path fill="none" stroke="#000000" d="M421.4815,-61C442.0385,-61 467.7523,-61 490.523,-61"/>
<polygon fill="#000000" stroke="#000000" points="490.749,-64.5001 500.749,-61 490.749,-57.5001 490.749,-64.5001"/>
<text text-anchor="middle" x="461.2349" y="-63.8" font-family="Times,serif" font-size="14.00" fill="#000000">deploys</text>
</g>
<!-- S3 Bucket -->
<g id="node5" class="node">
<title>S3 Bucket</title>
<path fill="#d3d3d3" stroke="#000000" d="M165.6587,-52C165.6587,-52 115.7759,-52 115.7759,-52 109.7759,-52 103.7759,-46 103.7759,-40 103.7759,-40 103.7759,-28 103.7759,-28 103.7759,-22 109.7759,-16 115.7759,-16 115.7759,-16 165.6587,-16 165.6587,-16 171.6587,-16 177.6587,-22 177.6587,-28 177.6587,-28 177.6587,-40 177.6587,-40 177.6587,-46 171.6587,-52 165.6587,-52"/>
<text text-anchor="middle" x="140.7173" y="-29.8" font-family="Times,serif" font-size="14.00" fill="#000000">S3 Bucket</text>
</g>
<!-- S3 Bucket&#45;&gt;CodeBuild -->
<g id="edge3" class="edge">
<title>S3 Bucket&#45;&gt;CodeBuild</title>
<path fill="none" stroke="#000000" d="M177.913,-37.4562C211.7943,-40.6826 263.196,-45.7727 307.79,-51 316.5492,-52.0267 325.8703,-53.1991 334.8627,-54.371"/>
<polygon fill="#000000" stroke="#000000" points="334.4563,-57.8476 344.8283,-55.6861 335.3722,-50.9078 334.4563,-57.8476"/>
<text text-anchor="middle" x="265.6123" y="-53.8" font-family="Times,serif" font-size="14.00" fill="#000000">provide secrets</text>
</g>
</g>
</svg>
