<?xml version="1.0" encoding="UTF-8" standalone="no"?>
<!DOCTYPE svg PUBLIC "-//W3C//DTD SVG 1.1//EN"
 "http://www.w3.org/Graphics/SVG/1.1/DTD/svg11.dtd">
<!-- Generated by graphviz version 2.40.1 (20161225.0304)
 -->
<!-- Title: G Pages: 1 -->
<svg width="1457pt" height="457pt"
 viewBox="0.00 0.00 1457.00 456.97" xmlns="http://www.w3.org/2000/svg" xmlns:xlink="http://www.w3.org/1999/xlink">
<g id="graph0" class="graph" transform="scale(1 1) rotate(0) translate(4 452.9682)">
<title>G</title>
<polygon fill="#ffffff" stroke="transparent" points="-4,4 -4,-452.9682 1453,-452.9682 1453,4 -4,4"/>
<g id="clust1" class="cluster">
<title>cluster_github</title>
<polygon fill="none" stroke="#000000" points="8,-194 8,-437.0431 478,-437.0431 478,-194 8,-194"/>
<text text-anchor="middle" x="243" y="-421.8431" font-family="Times,serif" font-size="14.00" fill="#000000">GitHub ps&#45;hippo</text>
</g>
<g id="clust3" class="cluster">
<title>cluster_github2</title>
<polygon fill="none" stroke="#000000" points="486,-194 486,-435.0783 950,-435.0783 950,-194 486,-194"/>
<text text-anchor="middle" x="718" y="-419.8783" font-family="Times,serif" font-size="14.00" fill="#000000">GitHub ps&#45;build</text>
</g>
<g id="clust5" class="cluster">
<title>cluster_github3</title>
<polygon fill="none" stroke="#000000" points="958,-194 958,-440.9682 1441,-440.9682 1441,-194 958,-194"/>
<text text-anchor="middle" x="1199.5" y="-425.7682" font-family="Times,serif" font-size="14.00" fill="#000000">GitHub ps&#45;deploy</text>
</g>
<!-- ps&#45;hippo -->
<g id="node1" class="node">
<title>ps&#45;hippo</title>
<ellipse fill="#d3d3d3" stroke="#000000" cx="243" cy="-361.9841" rx="41.1127" ry="41.1127"/>
<ellipse fill="none" stroke="#000000" cx="243" cy="-361.9841" rx="45.118" ry="45.118"/>
<text text-anchor="middle" x="243" y="-357.7841" font-family="Times,serif" font-size="14.00" fill="#000000">ps&#45;hippo</text>
</g>
<!-- ps&#45;hippo Feature Branch -->
<g id="node5" class="node">
<title>ps&#45;hippo Feature Branch</title>
<path fill="#d3d3d3" stroke="#000000" d="M158.4078,-238C158.4078,-238 27.5922,-238 27.5922,-238 21.5922,-238 15.5922,-232 15.5922,-226 15.5922,-226 15.5922,-214 15.5922,-214 15.5922,-208 21.5922,-202 27.5922,-202 27.5922,-202 158.4078,-202 158.4078,-202 164.4078,-202 170.4078,-208 170.4078,-214 170.4078,-214 170.4078,-226 170.4078,-226 170.4078,-232 164.4078,-238 158.4078,-238"/>
<text text-anchor="middle" x="93" y="-215.8" font-family="Times,serif" font-size="14.00" fill="#000000">ps&#45;hippo Feature Branch</text>
</g>
<!-- ps&#45;hippo&#45;&gt;ps&#45;hippo Feature Branch -->
<g id="edge1" class="edge">
<title>ps&#45;hippo&#45;&gt;ps&#45;hippo Feature Branch</title>
<path fill="none" stroke="#000000" d="M210.0819,-330.8251C180.0703,-302.4173 136.7668,-261.4279 112.1047,-238.0837"/>
</g>
<!-- ps&#45;hippo Master Branch -->
<g id="node6" class="node">
<title>ps&#45;hippo Master Branch</title>
<path fill="#d3d3d3" stroke="#000000" d="M457.804,-238C457.804,-238 330.196,-238 330.196,-238 324.196,-238 318.196,-232 318.196,-226 318.196,-226 318.196,-214 318.196,-214 318.196,-208 324.196,-202 330.196,-202 330.196,-202 457.804,-202 457.804,-202 463.804,-202 469.804,-208 469.804,-214 469.804,-214 469.804,-226 469.804,-226 469.804,-232 463.804,-238 457.804,-238"/>
<text text-anchor="middle" x="394" y="-215.8" font-family="Times,serif" font-size="14.00" fill="#000000">ps&#45;hippo Master Branch</text>
</g>
<!-- ps&#45;hippo&#45;&gt;ps&#45;hippo Master Branch -->
<g id="edge2" class="edge">
<title>ps&#45;hippo&#45;&gt;ps&#45;hippo Master Branch</title>
<path fill="none" stroke="#000000" d="M276.1376,-330.8251C306.3492,-302.4173 349.9414,-261.4279 374.768,-238.0837"/>
</g>
<!-- ps&#45;build -->
<g id="node2" class="node">
<title>ps&#45;build</title>
<ellipse fill="#d3d3d3" stroke="#000000" cx="719" cy="-361.9841" rx="39.1799" ry="39.1799"/>
<ellipse fill="none" stroke="#000000" cx="719" cy="-361.9841" rx="43.1886" ry="43.1886"/>
<text text-anchor="middle" x="719" y="-357.7841" font-family="Times,serif" font-size="14.00" fill="#000000">ps&#45;build</text>
</g>
<!-- ps&#45;build Feature Branch -->
<g id="node7" class="node">
<title>ps&#45;build Feature Branch</title>
<path fill="#d3d3d3" stroke="#000000" d="M633.7972,-238C633.7972,-238 506.2028,-238 506.2028,-238 500.2028,-238 494.2028,-232 494.2028,-226 494.2028,-226 494.2028,-214 494.2028,-214 494.2028,-208 500.2028,-202 506.2028,-202 506.2028,-202 633.7972,-202 633.7972,-202 639.7972,-202 645.7972,-208 645.7972,-214 645.7972,-214 645.7972,-226 645.7972,-226 645.7972,-232 639.7972,-238 633.7972,-238"/>
<text text-anchor="middle" x="570" y="-215.8" font-family="Times,serif" font-size="14.00" fill="#000000">ps&#45;build Feature Branch</text>
</g>
<!-- ps&#45;build&#45;&gt;ps&#45;build Feature Branch -->
<g id="edge4" class="edge">
<title>ps&#45;build&#45;&gt;ps&#45;build Feature Branch</title>
<path fill="none" stroke="#000000" d="M687.7647,-332.2196C657.8974,-303.7586 613.8328,-261.7689 588.9383,-238.0466"/>
</g>
<!-- ps&#45;build Master Branch -->
<g id="node8" class="node">
<title>ps&#45;build Master Branch</title>
<path fill="#d3d3d3" stroke="#000000" d="M930.1935,-238C930.1935,-238 805.8065,-238 805.8065,-238 799.8065,-238 793.8065,-232 793.8065,-226 793.8065,-226 793.8065,-214 793.8065,-214 793.8065,-208 799.8065,-202 805.8065,-202 805.8065,-202 930.1935,-202 930.1935,-202 936.1935,-202 942.1935,-208 942.1935,-214 942.1935,-214 942.1935,-226 942.1935,-226 942.1935,-232 936.1935,-238 930.1935,-238"/>
<text text-anchor="middle" x="868" y="-215.8" font-family="Times,serif" font-size="14.00" fill="#000000">ps&#45;build Master Branch</text>
</g>
<!-- ps&#45;build&#45;&gt;ps&#45;build Master Branch -->
<g id="edge5" class="edge">
<title>ps&#45;build&#45;&gt;ps&#45;build Master Branch</title>
<path fill="none" stroke="#000000" d="M750.2353,-332.2196C780.1026,-303.7586 824.1672,-261.7689 849.0617,-238.0466"/>
</g>
<!-- ps&#45;deploy -->
<g id="node3" class="node">
<title>ps&#45;deploy</title>
<ellipse fill="#d3d3d3" stroke="#000000" cx="1200" cy="-361.9841" rx="44.9695" ry="44.9695"/>
<ellipse fill="none" stroke="#000000" cx="1200" cy="-361.9841" rx="48.9682" ry="48.9682"/>
<text text-anchor="middle" x="1200" y="-357.7841" font-family="Times,serif" font-size="14.00" fill="#000000">ps&#45;deploy</text>
</g>
<!-- ps&#45;deploy Feature Branch -->
<g id="node9" class="node">
<title>ps&#45;deploy Feature Branch</title>
<path fill="#d3d3d3" stroke="#000000" d="M1114.1215,-238C1114.1215,-238 977.8785,-238 977.8785,-238 971.8785,-238 965.8785,-232 965.8785,-226 965.8785,-226 965.8785,-214 965.8785,-214 965.8785,-208 971.8785,-202 977.8785,-202 977.8785,-202 1114.1215,-202 1114.1215,-202 1120.1215,-202 1126.1215,-208 1126.1215,-214 1126.1215,-214 1126.1215,-226 1126.1215,-226 1126.1215,-232 1120.1215,-238 1114.1215,-238"/>
<text text-anchor="middle" x="1046" y="-215.8" font-family="Times,serif" font-size="14.00" fill="#000000">ps&#45;deploy Feature Branch</text>
</g>
<!-- ps&#45;deploy&#45;&gt;ps&#45;deploy Feature Branch -->
<g id="edge7" class="edge">
<title>ps&#45;deploy&#45;&gt;ps&#45;deploy Feature Branch</title>
<path fill="none" stroke="#000000" d="M1163.8938,-328.6951C1133.3116,-300.4991 1090.6051,-261.1247 1065.8716,-238.3211"/>
</g>
<!-- ps&#45;deploy Master Branch -->
<g id="node10" class="node">
<title>ps&#45;deploy Master Branch</title>
<path fill="#d3d3d3" stroke="#000000" d="M1420.5183,-238C1420.5183,-238 1287.4817,-238 1287.4817,-238 1281.4817,-238 1275.4817,-232 1275.4817,-226 1275.4817,-226 1275.4817,-214 1275.4817,-214 1275.4817,-208 1281.4817,-202 1287.4817,-202 1287.4817,-202 1420.5183,-202 1420.5183,-202 1426.5183,-202 1432.5183,-208 1432.5183,-214 1432.5183,-214 1432.5183,-226 1432.5183,-226 1432.5183,-232 1426.5183,-238 1420.5183,-238"/>
<text text-anchor="middle" x="1354" y="-215.8" font-family="Times,serif" font-size="14.00" fill="#000000">ps&#45;deploy Master Branch</text>
</g>
<!-- ps&#45;deploy&#45;&gt;ps&#45;deploy Master Branch -->
<g id="edge8" class="edge">
<title>ps&#45;deploy&#45;&gt;ps&#45;deploy Master Branch</title>
<path fill="none" stroke="#000000" d="M1236.1062,-328.6951C1266.6884,-300.4991 1309.3949,-261.1247 1334.1284,-238.3211"/>
</g>
<!-- Travis -->
<g id="node4" class="node">
<title>Travis</title>
<ellipse fill="#d3d3d3" stroke="#000000" cx="570" cy="-76" rx="72" ry="72"/>
<ellipse fill="none" stroke="#000000" cx="570" cy="-76" rx="76" ry="76"/>
<text text-anchor="middle" x="570" y="-71.8" font-family="Times,serif" font-size="14.00" fill="#000000">Travis</text>
</g>
<!-- ps&#45;hippo Feature Branch&#45;&gt;Travis -->
<g id="edge12" class="edge">
<title>ps&#45;hippo Feature Branch&#45;&gt;Travis</title>
<path fill="none" stroke="#000000" d="M162.6958,-198.9598C248.8875,-172.9396 395.4288,-128.7007 487.2455,-100.9825"/>
<polygon fill="#000000" stroke="#000000" points="161.4911,-195.6673 152.9294,-201.9081 163.5142,-202.3686 161.4911,-195.6673"/>
<polygon fill="#000000" stroke="#000000" points="488.4968,-104.2608 497.0586,-98.02 486.4738,-97.5595 488.4968,-104.2608"/>
<text text-anchor="middle" x="311.7432" y="-172.8" font-family="Times,serif" font-size="14.00" fill="#000000">Continuous Integration</text>
</g>
<!-- ps&#45;hippo Feature Branch&#45;&gt;ps&#45;hippo Master Branch -->
<g id="edge3" class="edge">
<title>ps&#45;hippo Feature Branch&#45;&gt;ps&#45;hippo Master Branch</title>
<path fill="none" stroke="#000000" d="M170.515,-220C212.6038,-220 264.741,-220 308.0682,-220"/>
<polygon fill="#000000" stroke="#000000" points="308.3092,-223.5001 318.3091,-220 308.3091,-216.5001 308.3092,-223.5001"/>
<text text-anchor="middle" x="244.2759" y="-225.8" font-family="Times,serif" font-size="14.00" fill="#000000">Approved Pull Request</text>
</g>
<!-- ps&#45;build Feature Branch&#45;&gt;Travis -->
<g id="edge10" class="edge">
<title>ps&#45;build Feature Branch&#45;&gt;Travis</title>
<path fill="none" stroke="#000000" d="M570,-191.5486C570,-182.8468 570,-172.7856 570,-162.303"/>
<polygon fill="#000000" stroke="#000000" points="566.5001,-191.7623 570,-201.7623 573.5001,-191.7623 566.5001,-191.7623"/>
<polygon fill="#000000" stroke="#000000" points="573.5001,-162.154 570,-152.1541 566.5001,-162.1541 573.5001,-162.154"/>
<text text-anchor="middle" x="634.7432" y="-172.8" font-family="Times,serif" font-size="14.00" fill="#000000">Continuous Integration</text>
</g>
<!-- ps&#45;build Feature Branch&#45;&gt;ps&#45;build Master Branch -->
<g id="edge6" class="edge">
<title>ps&#45;build Feature Branch&#45;&gt;ps&#45;build Master Branch</title>
<path fill="none" stroke="#000000" d="M645.969,-220C687.9551,-220 740.2198,-220 783.4921,-220"/>
<polygon fill="#000000" stroke="#000000" points="783.7161,-223.5001 793.7161,-220 783.7161,-216.5001 783.7161,-223.5001"/>
<text text-anchor="middle" x="719.7759" y="-225.8" font-family="Times,serif" font-size="14.00" fill="#000000">Approved Pull Request</text>
</g>
<!-- ps&#45;deploy Feature Branch&#45;&gt;Travis -->
<g id="edge11" class="edge">
<title>ps&#45;deploy Feature Branch&#45;&gt;Travis</title>
<path fill="none" stroke="#000000" d="M976.4503,-198.9598C890.4393,-172.9396 744.2052,-128.7007 652.581,-100.9825"/>
<polygon fill="#000000" stroke="#000000" points="975.6112,-202.3625 986.1962,-201.9081 977.6381,-195.6624 975.6112,-202.3625"/>
<polygon fill="#000000" stroke="#000000" points="653.3736,-97.5657 642.7885,-98.02 651.3466,-104.2658 653.3736,-97.5657"/>
<text text-anchor="middle" x="982.7432" y="-172.8" font-family="Times,serif" font-size="14.00" fill="#000000">Continuous Integration</text>
</g>
<!-- ps&#45;deploy Feature Branch&#45;&gt;ps&#45;deploy Master Branch -->
<g id="edge9" class="edge">
<title>ps&#45;deploy Feature Branch&#45;&gt;ps&#45;deploy Master Branch</title>
<path fill="none" stroke="#000000" d="M1126.5211,-220C1169.1005,-220 1221.4686,-220 1265.2213,-220"/>
<polygon fill="#000000" stroke="#000000" points="1265.2801,-223.5001 1275.2801,-220 1265.2801,-216.5001 1265.2801,-223.5001"/>
<text text-anchor="middle" x="1200.7759" y="-225.8" font-family="Times,serif" font-size="14.00" fill="#000000">Approved Pull Request</text>
</g>
</g>
</svg>
