<?xml version="1.0" encoding="UTF-8" standalone="no"?>
<!DOCTYPE svg PUBLIC "-//W3C//DTD SVG 1.1//EN"
 "http://www.w3.org/Graphics/SVG/1.1/DTD/svg11.dtd">
<!-- Generated by graphviz version 2.40.1 (20161225.0304)
 -->
<!-- Title: finite_state_machine Pages: 1 -->
<svg width="475pt" height="244pt"
 viewBox="0.00 0.00 474.85 244.00" xmlns="http://www.w3.org/2000/svg" xmlns:xlink="http://www.w3.org/1999/xlink">
<g id="graph0" class="graph" transform="scale(1 1) rotate(0) translate(4 240)">
<title>finite_state_machine</title>
<polygon fill="#ffffff" stroke="transparent" points="-4,4 -4,-240 470.8463,-240 470.8463,4 -4,4"/>
<g id="clust1" class="cluster">
<title>cluster_aws</title>
<polygon fill="none" stroke="#000000" points="78.7588,-8 78.7588,-228 458.8463,-228 458.8463,-8 78.7588,-8"/>
<text text-anchor="middle" x="268.8025" y="-212.8" font-family="Times,serif" font-size="14.00" fill="#000000">AWS dev environment</text>
</g>
<g id="clust2" class="cluster">
<title>cluster_public</title>
<polygon fill="none" stroke="#000000" points="86.7588,-16 86.7588,-198 277.7158,-198 277.7158,-16 86.7588,-16"/>
<text text-anchor="middle" x="182.2373" y="-182.8" font-family="Times,serif" font-size="14.00" fill="#000000">public subnets</text>
</g>
<g id="clust3" class="cluster">
<title>cluster_private</title>
<polygon fill="none" stroke="#000000" points="297.7158,-43 297.7158,-171 450.8463,-171 450.8463,-43 297.7158,-43"/>
<text text-anchor="middle" x="374.2811" y="-155.8" font-family="Times,serif" font-size="14.00" fill="#000000">private subnets</text>
</g>
<!-- internet -->
<g id="node1" class="node">
<title>internet</title>
<polygon fill="none" stroke="#000000" points="58.6387,-114 .1201,-114 .1201,-78 58.6387,-78 58.6387,-114"/>
<text text-anchor="middle" x="29.3794" y="-91.8" font-family="Times,serif" font-size="14.00" fill="#000000">internet</text>
</g>
<!-- bastion -->
<g id="node2" class="node">
<title>bastion</title>
<ellipse fill="none" stroke="#000000" cx="182.2373" cy="-96" rx="35.806" ry="18"/>
<text text-anchor="middle" x="182.2373" y="-91.8" font-family="Times,serif" font-size="14.00" fill="#000000">bastion</text>
</g>
<!-- internet&#45;&gt;bastion -->
<g id="edge1" class="edge">
<title>internet&#45;&gt;bastion</title>
<path fill="none" stroke="#000000" d="M58.8519,-96C80.8119,-96 111.2159,-96 136.3474,-96"/>
<polygon fill="#000000" stroke="#000000" points="136.3989,-99.5001 146.3989,-96 136.3989,-92.5001 136.3989,-99.5001"/>
</g>
<!-- ELB hippo_delivery -->
<g id="node3" class="node">
<title>ELB hippo_delivery</title>
<ellipse fill="none" stroke="#000000" cx="182.2373" cy="-150" rx="82.6204" ry="18"/>
<text text-anchor="middle" x="182.2373" y="-145.8" font-family="Times,serif" font-size="14.00" fill="#000000">ELB hippo_delivery</text>
</g>
<!-- internet&#45;&gt;ELB hippo_delivery -->
<g id="edge4" class="edge">
<title>internet&#45;&gt;ELB hippo_delivery</title>
<path fill="none" stroke="#000000" d="M58.8398,-113.6322C65.2653,-117.0429 72.1292,-120.3689 78.7588,-123 89.8141,-127.3875 101.8165,-131.2699 113.5995,-134.6253"/>
<polygon fill="#000000" stroke="#000000" points="112.8504,-138.049 123.4201,-137.3193 114.7023,-131.2984 112.8504,-138.049"/>
</g>
<!-- ELB hippo_authoring -->
<g id="node4" class="node">
<title>ELB hippo_authoring</title>
<ellipse fill="none" stroke="#000000" cx="182.2373" cy="-42" rx="87.457" ry="18"/>
<text text-anchor="middle" x="182.2373" y="-37.8" font-family="Times,serif" font-size="14.00" fill="#000000">ELB hippo_authoring</text>
</g>
<!-- internet&#45;&gt;ELB hippo_authoring -->
<g id="edge6" class="edge">
<title>internet&#45;&gt;ELB hippo_authoring</title>
<path fill="none" stroke="#000000" d="M58.8398,-78.3678C65.2653,-74.9571 72.1292,-71.6311 78.7588,-69 89.3032,-64.8153 100.709,-61.09 111.9644,-57.8434"/>
<polygon fill="#000000" stroke="#000000" points="113.0928,-61.1625 121.7913,-55.1139 111.2194,-54.4178 113.0928,-61.1625"/>
</g>
<!-- hippo_authoring -->
<g id="node5" class="node">
<title>hippo_authoring</title>
<ellipse fill="none" stroke="#000000" cx="374.2811" cy="-69" rx="68.6305" ry="18"/>
<text text-anchor="middle" x="374.2811" y="-64.8" font-family="Times,serif" font-size="14.00" fill="#000000">hippo_authoring</text>
</g>
<!-- bastion&#45;&gt;hippo_authoring -->
<g id="edge3" class="edge">
<title>bastion&#45;&gt;hippo_authoring</title>
<path fill="none" stroke="#000000" d="M217.015,-91.1105C243.9292,-87.3266 281.8609,-81.9936 313.7283,-77.5133"/>
</g>
<!-- hippo_delivery -->
<g id="node6" class="node">
<title>hippo_delivery</title>
<ellipse fill="none" stroke="#000000" cx="374.2811" cy="-123" rx="63.7942" ry="18"/>
<text text-anchor="middle" x="374.2811" y="-118.8" font-family="Times,serif" font-size="14.00" fill="#000000">hippo_delivery</text>
</g>
<!-- bastion&#45;&gt;hippo_delivery -->
<g id="edge2" class="edge">
<title>bastion&#45;&gt;hippo_delivery</title>
<path fill="none" stroke="#000000" d="M217.015,-100.8895C244.902,-104.8102 284.6174,-110.3939 317.1592,-114.9691"/>
</g>
<!-- ELB hippo_delivery&#45;&gt;hippo_delivery -->
<g id="edge5" class="edge">
<title>ELB hippo_delivery&#45;&gt;hippo_delivery</title>
<path fill="none" stroke="#000000" d="M251.841,-140.2142C269.8713,-137.6793 289.2491,-134.9549 307.1498,-132.4382"/>
<polygon fill="#000000" stroke="#000000" points="307.7947,-135.882 317.21,-131.0238 306.82,-128.9502 307.7947,-135.882"/>
</g>
<!-- ELB hippo_authoring&#45;&gt;hippo_authoring -->
<g id="edge7" class="edge">
<title>ELB hippo_authoring&#45;&gt;hippo_authoring</title>
<path fill="none" stroke="#000000" d="M254.5672,-52.1691C270.5284,-54.4131 287.4213,-56.7881 303.3273,-59.0244"/>
<polygon fill="#000000" stroke="#000000" points="303.2277,-62.5447 313.6176,-60.4712 304.2023,-55.6129 303.2277,-62.5447"/>
</g>
</g>
</svg>
