<?xml version="1.0" encoding="UTF-8" standalone="no"?>
<!DOCTYPE svg PUBLIC "-//W3C//DTD SVG 1.1//EN"
 "http://www.w3.org/Graphics/SVG/1.1/DTD/svg11.dtd">
<!-- Generated by graphviz version 2.40.1 (20161225.0304)
 -->
<!-- Title: G Pages: 1 -->
<svg width="1383pt" height="332pt"
 viewBox="0.00 0.00 1382.57 331.76" xmlns="http://www.w3.org/2000/svg" xmlns:xlink="http://www.w3.org/1999/xlink">
<g id="graph0" class="graph" transform="scale(1 1) rotate(0) translate(4 327.7614)">
<title>G</title>
<polygon fill="#ffffff" stroke="transparent" points="-4,4 -4,-327.7614 1378.5723,-327.7614 1378.5723,4 -4,4"/>
<g id="clust1" class="cluster">
<title>cluster_github</title>
<polygon fill="none" stroke="#000000" points="8,-125.7614 8,-315.7614 333.1179,-315.7614 333.1179,-125.7614 8,-125.7614"/>
<text text-anchor="middle" x="170.559" y="-300.5614" font-family="Times,serif" font-size="14.00" fill="#000000">GitHub ps&#45;hippo</text>
</g>
<g id="clust3" class="cluster">
<title>cluster_pipeline</title>
<polygon fill="none" stroke="#000000" points="470.1628,-139.7614 470.1628,-213.7614 1156.4687,-213.7614 1156.4687,-139.7614 470.1628,-139.7614"/>
<text text-anchor="middle" x="813.3158" y="-198.5614" font-family="Times,serif" font-size="14.00" fill="#000000">Code Pipeline &#45; PS Hippo</text>
</g>
<!-- ps&#45;hippo Master Branch -->
<g id="node1" class="node">
<title>ps&#45;hippo Master Branch</title>
<ellipse fill="#d3d3d3" stroke="#000000" cx="249.1179" cy="-209.7614" rx="72" ry="72"/>
<ellipse fill="none" stroke="#000000" cx="249.1179" cy="-209.7614" rx="76" ry="76"/>
<text text-anchor="middle" x="249.1179" y="-205.5614" font-family="Times,serif" font-size="14.00" fill="#000000">ps&#45;hippo Master Branch</text>
</g>
<!-- Test &amp; Build -->
<g id="node4" class="node">
<title>Test &amp; Build</title>
<path fill="#d3d3d3" stroke="#000000" d="M554.3621,-183.7614C554.3621,-183.7614 490.0963,-183.7614 490.0963,-183.7614 484.0963,-183.7614 478.0963,-177.7614 478.0963,-171.7614 478.0963,-171.7614 478.0963,-159.7614 478.0963,-159.7614 478.0963,-153.7614 484.0963,-147.7614 490.0963,-147.7614 490.0963,-147.7614 554.3621,-147.7614 554.3621,-147.7614 560.3621,-147.7614 566.3621,-153.7614 566.3621,-159.7614 566.3621,-159.7614 566.3621,-171.7614 566.3621,-171.7614 566.3621,-177.7614 560.3621,-183.7614 554.3621,-183.7614"/>
<text text-anchor="middle" x="522.2292" y="-161.5614" font-family="Times,serif" font-size="14.00" fill="#000000">Test &amp; Build</text>
</g>
<!-- ps&#45;hippo Master Branch&#45;&gt;Test &amp; Build -->
<g id="edge4" class="edge">
<title>ps&#45;hippo Master Branch&#45;&gt;Test &amp; Build</title>
<path fill="none" stroke="#000000" d="M324.4697,-197.6217C369.8827,-190.3054 426.6821,-181.1546 467.7433,-174.5394"/>
<polygon fill="#000000" stroke="#000000" points="468.511,-177.9609 477.827,-172.9148 467.3976,-171.05 468.511,-177.9609"/>
<text text-anchor="middle" x="401.6404" y="-196.5614" font-family="Times,serif" font-size="14.00" fill="#000000">Continuous Delivery</text>
</g>
<!-- OnDemand -->
<g id="node2" class="node">
<title>OnDemand</title>
<ellipse fill="#d3d3d3" stroke="#000000" cx="1298.5723" cy="-135.7614" rx="72" ry="72"/>
<ellipse fill="none" stroke="#000000" cx="1298.5723" cy="-135.7614" rx="76" ry="76"/>
<text text-anchor="middle" x="1298.5723" y="-131.5614" font-family="Times,serif" font-size="14.00" fill="#000000">OnDemand</text>
</g>
<!-- ps&#45;hippo -->
<g id="node3" class="node">
<title>ps&#45;hippo</title>
<ellipse fill="#d3d3d3" stroke="#000000" cx="57.059" cy="-191.7614" rx="41.118" ry="41.118"/>
<text text-anchor="middle" x="57.059" y="-187.5614" font-family="Times,serif" font-size="14.00" fill="#000000">ps&#45;hippo</text>
</g>
<!-- ps&#45;hippo&#45;&gt;ps&#45;hippo Master Branch -->
<g id="edge1" class="edge">
<title>ps&#45;hippo&#45;&gt;ps&#45;hippo Master Branch</title>
<path fill="none" stroke="#000000" d="M98.2604,-195.6228C120.0842,-197.6682 147.5896,-200.246 173.1185,-202.6386"/>
</g>
<!-- Tag &amp; Upload -->
<g id="node5" class="node">
<title>Tag &amp; Upload</title>
<path fill="#d3d3d3" stroke="#000000" d="M725.1331,-183.7614C725.1331,-183.7614 653.3498,-183.7614 653.3498,-183.7614 647.3498,-183.7614 641.3498,-177.7614 641.3498,-171.7614 641.3498,-171.7614 641.3498,-159.7614 641.3498,-159.7614 641.3498,-153.7614 647.3498,-147.7614 653.3498,-147.7614 653.3498,-147.7614 725.1331,-147.7614 725.1331,-147.7614 731.1331,-147.7614 737.1331,-153.7614 737.1331,-159.7614 737.1331,-159.7614 737.1331,-171.7614 737.1331,-171.7614 737.1331,-177.7614 731.1331,-183.7614 725.1331,-183.7614"/>
<text text-anchor="middle" x="689.2414" y="-161.5614" font-family="Times,serif" font-size="14.00" fill="#000000">Tag &amp; Upload</text>
</g>
<!-- Test &amp; Build&#45;&gt;Tag &amp; Upload -->
<g id="edge2" class="edge">
<title>Test &amp; Build&#45;&gt;Tag &amp; Upload</title>
<path fill="none" stroke="#000000" d="M566.547,-165.7614C586.3123,-165.7614 609.8657,-165.7614 631.0266,-165.7614"/>
<polygon fill="#000000" stroke="#000000" points="631.1954,-169.2615 641.1954,-165.7614 631.1954,-162.2615 631.1954,-169.2615"/>
</g>
<!-- Tag &amp; Upload&#45;&gt;OnDemand -->
<g id="edge7" class="edge">
<title>Tag &amp; Upload&#45;&gt;OnDemand</title>
<path fill="none" stroke="#000000" d="M737.1564,-161.7249C812.4687,-155.5653 963.1757,-143.9855 1091.2549,-138.7614 1130.87,-137.1455 1174.7741,-136.3648 1211.943,-135.9996"/>
<polygon fill="#000000" stroke="#000000" points="1212.2706,-139.4969 1222.2388,-135.9073 1212.2078,-132.4972 1212.2706,-139.4969"/>
<text text-anchor="middle" x="1025.6186" y="-146.5614" font-family="Times,serif" font-size="14.00" fill="#000000">store distribution</text>
</g>
<!-- Tag &amp; Upload&#45;&gt;ps&#45;hippo -->
<g id="edge5" class="edge">
<title>Tag &amp; Upload&#45;&gt;ps&#45;hippo</title>
<path fill="none" stroke="#000000" d="M675.3027,-147.7594C659.9033,-130.086 633.3416,-105.7614 603.7956,-105.7614 135.6179,-105.7614 135.6179,-105.7614 135.6179,-105.7614 111.1112,-105.7614 92.202,-125.0337 79.0827,-145.3317"/>
<polygon fill="#000000" stroke="#000000" points="75.9959,-143.6725 73.8152,-154.0405 81.9855,-147.2954 75.9959,-143.6725"/>
<text text-anchor="middle" x="401.6404" y="-108.5614" font-family="Times,serif" font-size="14.00" fill="#000000">create tags</text>
</g>
<!-- Deploy -->
<g id="node6" class="node">
<title>Deploy</title>
<path fill="#d3d3d3" stroke="#000000" d="M1136.5761,-183.7614C1136.5761,-183.7614 1103.1475,-183.7614 1103.1475,-183.7614 1097.1475,-183.7614 1091.1475,-177.7614 1091.1475,-171.7614 1091.1475,-171.7614 1091.1475,-159.7614 1091.1475,-159.7614 1091.1475,-153.7614 1097.1475,-147.7614 1103.1475,-147.7614 1103.1475,-147.7614 1136.5761,-147.7614 1136.5761,-147.7614 1142.5761,-147.7614 1148.5761,-153.7614 1148.5761,-159.7614 1148.5761,-159.7614 1148.5761,-171.7614 1148.5761,-171.7614 1148.5761,-177.7614 1142.5761,-183.7614 1136.5761,-183.7614"/>
<text text-anchor="middle" x="1119.8618" y="-161.5614" font-family="Times,serif" font-size="14.00" fill="#000000">Deploy</text>
</g>
<!-- Tag &amp; Upload&#45;&gt;Deploy -->
<g id="edge3" class="edge">
<title>Tag &amp; Upload&#45;&gt;Deploy</title>
<path fill="none" stroke="#000000" d="M737.3856,-165.7614C823.3263,-165.7614 1001.5333,-165.7614 1080.605,-165.7614"/>
<polygon fill="#000000" stroke="#000000" points="1081.0845,-169.2615 1091.0845,-165.7614 1081.0844,-162.2615 1081.0845,-169.2615"/>
</g>
<!-- AWS &#45; S3 -->
<g id="node7" class="node">
<title>AWS &#45; S3</title>
<ellipse fill="#d3d3d3" stroke="#000000" cx="914.2211" cy="-45.7614" rx="45.524" ry="45.524"/>
<text text-anchor="middle" x="914.2211" y="-41.5614" font-family="Times,serif" font-size="14.00" fill="#000000">AWS &#45; S3</text>
</g>
<!-- Tag &amp; Upload&#45;&gt;AWS &#45; S3 -->
<g id="edge6" class="edge">
<title>Tag &amp; Upload&#45;&gt;AWS &#45; S3</title>
<path fill="none" stroke="#000000" d="M700.9449,-147.582C712.7045,-130.7329 732.3288,-106.1634 755.1872,-91.7614 786.4558,-72.0605 826.4352,-60.5452 858.4863,-53.9628"/>
<polygon fill="#000000" stroke="#000000" points="859.4461,-57.3418 868.5928,-51.9949 858.1081,-50.4708 859.4461,-57.3418"/>
<text text-anchor="middle" x="802.8235" y="-94.5614" font-family="Times,serif" font-size="14.00" fill="#000000">store distribution</text>
</g>
<!-- Deploy&#45;&gt;OnDemand -->
<g id="edge8" class="edge">
<title>Deploy&#45;&gt;OnDemand</title>
<path fill="none" stroke="#000000" d="M1148.5747,-160.9413C1166.2731,-157.9703 1189.9811,-153.9905 1213.3156,-150.0733"/>
<polygon fill="#000000" stroke="#000000" points="1213.9921,-153.5088 1223.2746,-148.4015 1212.8331,-146.6054 1213.9921,-153.5088"/>
<text text-anchor="middle" x="1185.5205" y="-159.5614" font-family="Times,serif" font-size="14.00" fill="#000000">deploy</text>
</g>
</g>
</svg>
