<?xml version="1.0" encoding="UTF-8" standalone="no"?>
<!DOCTYPE svg PUBLIC "-//W3C//DTD SVG 1.1//EN"
 "http://www.w3.org/Graphics/SVG/1.1/DTD/svg11.dtd">
<!-- Generated by graphviz version 2.40.1 (20161225.0304)
 -->
<!-- Title: finite_state_machine Pages: 1 -->
<svg width="376pt" height="152pt"
 viewBox="0.00 0.00 375.63 152.00" xmlns="http://www.w3.org/2000/svg" xmlns:xlink="http://www.w3.org/1999/xlink">
<g id="graph0" class="graph" transform="scale(1 1) rotate(0) translate(4 148)">
<title>finite_state_machine</title>
<polygon fill="#ffffff" stroke="transparent" points="-4,4 -4,-148 371.6292,-148 371.6292,4 -4,4"/>
<g id="clust1" class="cluster">
<title>cluster_aws</title>
<polygon fill="none" stroke="#000000" points="99.1934,-8 99.1934,-136 359.6292,-136 359.6292,-8 99.1934,-8"/>
<text text-anchor="middle" x="229.4113" y="-120.8" font-family="Times,serif" font-size="14.00" fill="#000000">AWS dev environment</text>
</g>
<!-- developer -->
<g id="node1" class="node">
<title>developer</title>
<path fill="#d3d3d3" stroke="#000000" d="M59.2903,-79C59.2903,-79 11.9031,-79 11.9031,-79 5.9031,-79 -.0969,-73 -.0969,-67 -.0969,-67 -.0969,-55 -.0969,-55 -.0969,-49 5.9031,-43 11.9031,-43 11.9031,-43 59.2903,-43 59.2903,-43 65.2903,-43 71.2903,-49 71.2903,-55 71.2903,-55 71.2903,-67 71.2903,-67 71.2903,-73 65.2903,-79 59.2903,-79"/>
<text text-anchor="middle" x="35.5967" y="-56.8" font-family="Times,serif" font-size="14.00" fill="#000000">developer</text>
</g>
<!-- bastion -->
<g id="node2" class="node">
<title>bastion</title>
<ellipse fill="#d3d3d3" stroke="#000000" cx="142.8461" cy="-61" rx="35.806" ry="18"/>
<text text-anchor="middle" x="142.8461" y="-56.8" font-family="Times,serif" font-size="14.00" fill="#000000">bastion</text>
</g>
<!-- developer&#45;&gt;bastion -->
<g id="edge3" class="edge">
<title>developer&#45;&gt;bastion</title>
<path fill="none" stroke="#000000" d="M71.3092,-61C79.4536,-61 88.2207,-61 96.7305,-61"/>
<polygon fill="#000000" stroke="#000000" points="96.9239,-64.5001 106.9238,-61 96.9238,-57.5001 96.9239,-64.5001"/>
</g>
<!-- hippo_delivery -->
<g id="node3" class="node">
<title>hippo_delivery</title>
<ellipse fill="#d3d3d3" stroke="#000000" cx="283.064" cy="-34" rx="63.7942" ry="18"/>
<text text-anchor="middle" x="283.064" y="-29.8" font-family="Times,serif" font-size="14.00" fill="#000000">hippo_delivery</text>
</g>
<!-- bastion&#45;&gt;hippo_delivery -->
<g id="edge1" class="edge">
<title>bastion&#45;&gt;hippo_delivery</title>
<path fill="none" stroke="#000000" d="M176.4317,-54.5328C192.5547,-51.4282 212.2531,-47.6352 230.3119,-44.1578"/>
</g>
<!-- hippo_authoring -->
<g id="node4" class="node">
<title>hippo_authoring</title>
<ellipse fill="#d3d3d3" stroke="#000000" cx="283.064" cy="-88" rx="68.6305" ry="18"/>
<text text-anchor="middle" x="283.064" y="-83.8" font-family="Times,serif" font-size="14.00" fill="#000000">hippo_authoring</text>
</g>
<!-- bastion&#45;&gt;hippo_authoring -->
<g id="edge2" class="edge">
<title>bastion&#45;&gt;hippo_authoring</title>
<path fill="none" stroke="#000000" d="M176.4317,-67.4672C191.7445,-70.4158 210.2824,-73.9854 227.5777,-77.3157"/>
</g>
</g>
</svg>
